<svg xmlns="http://www.w3.org/2000/svg" viewBox="0 0 512 512" role="img" aria-labelledby="title desc">
  <title id="title">rust-bandnorm sticker</title>
  <desc id="desc">OmicVerse repository hex sticker for rust-bandnorm.</desc>
  <defs>
    <linearGradient id="bg" x1="112" y1="90" x2="398" y2="430" gradientUnits="userSpaceOnUse">
      <stop offset="0" stop-color="#060503"/>
      <stop offset=".58" stop-color="#030201"/>
      <stop offset="1" stop-color="#000000"/>
    </linearGradient>
  </defs>
  <polygon points="256,34 450,146 450,368 256,480 62,368 62,146" fill="#000000" opacity=".34"/>
  <polygon points="256,22 458,139 458,373 256,490 54,373 54,139" fill="url(#bg)" stroke="#0B0F0A" stroke-width="19" stroke-linejoin="round"/>
  <polygon points="256,22 458,139 458,373 256,490 54,373 54,139" fill="none" stroke="#FFF1D6" stroke-width="12" stroke-linejoin="round"/>
  <g opacity=".22" stroke="#D8B44C" stroke-width="2.2">
    <path d="M112 166h288M100 222h312M100 278h312M112 334h288"/>
    <path d="M152 126v236M204 104v274M256 96v286M308 104v274M360 126v236"/>
  </g>
  
  <g id="motif">
    <path d="M133 177h239M133 220h239M133 263h239" stroke="#FFFFFF" stroke-width="5" opacity=".42"/>
    <path d="M140 194c34-34 67-34 100 0s66 34 99 0" fill="none" stroke="#FF6B35" stroke-width="9" stroke-linecap="round"/>
    <path d="M140 252c55-11 111-11 166 0 27 5 52 6 77 2" fill="none" stroke="#7EE35F" stroke-width="9" stroke-linecap="round"/>
    <path d="M256 148v165" stroke="#FFB000" stroke-width="6" stroke-dasharray="9 11"/>
    <path d="M225 332h62" stroke="#FFFFFF" stroke-width="8" stroke-linecap="round"/>
  </g>
  <path id="label" d="M309.08,382.16 Q308.55,382.20 308.08,382.35 Q307.61,382.50 307.19,382.74 Q305.95,383.45 305.74,384.63 Q305.53,385.80 306.38,387.28 L309.05,391.89 L305.85,393.74 L300.07,383.72 L303.27,381.88 L304.22,383.52 Q304.27,382.18 304.81,381.27 Q305.35,380.36 306.46,379.71 Q306.62,379.62 306.82,379.52 Q307.01,379.43 307.40,379.27 L309.08,382.16 Z M317.10,374.30 L318.51,376.74 Q317.23,376.90 316.15,377.24 Q315.07,377.58 314.22,378.07 Q313.31,378.59 313.00,379.08 Q312.69,379.56 312.96,380.03 Q313.18,380.42 313.64,380.43 Q314.09,380.44 315.01,380.04 L315.62,379.80 Q318.27,378.69 319.53,378.91 Q320.79,379.14 321.67,380.67 Q322.60,382.27 321.88,383.76 Q321.16,385.24 318.82,386.60 Q317.83,387.17 316.68,387.62 Q315.53,388.08 314.23,388.41 L312.83,385.98 Q314.05,385.89 315.19,385.55 Q316.33,385.20 317.37,384.60 Q318.31,384.05 318.63,383.52 Q318.96,382.99 318.66,382.48 Q318.41,382.05 317.97,382.03 Q317.52,382.01 316.48,382.45 L315.87,382.71 Q313.58,383.67 312.30,383.44 Q311.03,383.21 310.17,381.74 Q309.26,380.15 309.90,378.75 Q310.55,377.35 312.80,376.05 Q313.69,375.54 314.74,375.11 Q315.79,374.68 317.10,374.30 Z M321.44,375.97 L327.06,372.73 L328.56,375.33 L322.94,378.57 L321.44,375.97 Z M337.52,372.70 Q338.55,372.11 338.66,371.04 Q338.76,369.98 337.94,368.55 Q337.11,367.12 336.14,366.68 Q335.16,366.24 334.13,366.83 Q333.11,367.43 332.99,368.50 Q332.88,369.57 333.70,371.00 Q334.52,372.42 335.50,372.86 Q336.49,373.29 337.52,372.70 Z M331.65,367.44 Q331.81,366.19 332.37,365.31 Q332.93,364.43 333.98,363.82 Q335.83,362.75 337.87,363.54 Q339.91,364.32 341.25,366.64 Q342.58,368.95 342.24,371.11 Q341.91,373.27 340.05,374.34 Q339.01,374.94 337.96,374.99 Q336.92,375.04 335.75,374.55 L336.58,376.00 L333.38,377.84 L325.35,363.93 L328.55,362.08 L331.65,367.44 Z M348.38,363.18 Q347.38,363.75 347.07,364.39 Q346.76,365.01 347.14,365.68 Q347.49,366.29 348.10,366.40 Q348.71,366.50 349.43,366.09 Q350.33,365.57 350.58,364.56 Q350.82,363.56 350.26,362.58 L350.05,362.21 L348.38,363.18 Z M352.58,359.14 L355.88,364.86 L352.65,366.72 L351.79,365.24 Q351.67,366.52 351.11,367.40 Q350.54,368.28 349.39,368.95 Q347.83,369.85 346.34,369.50 Q344.84,369.15 344.01,367.70 Q342.99,365.94 343.73,364.42 Q344.46,362.90 347.06,361.40 L348.94,360.31 L348.80,360.06 Q348.36,359.30 347.56,359.29 Q346.75,359.28 345.48,360.02 Q344.46,360.61 343.69,361.33 Q342.92,362.04 342.40,362.90 L340.99,360.46 Q341.88,359.61 342.84,358.88 Q343.80,358.15 344.84,357.55 Q347.55,355.99 349.37,356.36 Q351.19,356.74 352.58,359.14 Z M365.40,351.23 L368.92,357.33 L365.70,359.18 L365.13,358.19 L363.01,354.52 Q362.26,353.22 361.92,352.76 Q361.58,352.30 361.30,352.15 Q360.93,351.95 360.50,351.96 Q360.08,351.97 359.67,352.21 Q358.67,352.79 358.54,353.89 Q358.42,354.99 359.21,356.36 L362.05,361.29 L358.85,363.14 L353.07,353.12 L356.27,351.27 L357.12,352.74 Q357.33,351.45 357.91,350.56 Q358.48,349.68 359.47,349.11 Q361.20,348.11 362.72,348.65 Q364.23,349.19 365.40,351.23 Z M373.77,343.12 L370.67,337.76 L373.89,335.90 L381.93,349.82 L378.71,351.68 L377.87,350.23 Q377.72,351.49 377.16,352.37 Q376.60,353.24 375.56,353.84 Q373.71,354.91 371.67,354.13 Q369.63,353.34 368.29,351.02 Q366.95,348.71 367.29,346.55 Q367.63,344.39 369.49,343.32 Q370.52,342.73 371.56,342.68 Q372.60,342.63 373.77,343.12 Z M375.40,350.83 Q376.43,350.23 376.54,349.17 Q376.65,348.11 375.82,346.68 Q374.99,345.25 374.02,344.81 Q373.04,344.37 372.01,344.96 Q371.00,345.55 370.89,346.62 Q370.78,347.68 371.61,349.11 Q372.43,350.54 373.41,350.98 Q374.38,351.42 375.40,350.83 Z M391.55,336.13 L395.07,342.23 L391.85,344.09 L391.28,343.09 L389.16,339.42 Q388.41,338.12 388.07,337.66 Q387.72,337.20 387.45,337.06 Q387.08,336.85 386.65,336.86 Q386.23,336.87 385.82,337.11 Q384.82,337.69 384.69,338.79 Q384.57,339.90 385.36,341.27 L388.20,346.19 L385.00,348.04 L379.22,338.02 L382.42,336.18 L383.27,337.64 Q383.48,336.35 384.06,335.46 Q384.63,334.58 385.62,334.01 Q387.35,333.01 388.86,333.55 Q390.38,334.10 391.55,336.13 Z M398.21,329.79 Q397.14,330.41 397.03,331.50 Q396.91,332.58 397.74,334.02 Q398.57,335.46 399.57,335.91 Q400.57,336.35 401.63,335.73 Q402.68,335.13 402.79,334.05 Q402.91,332.96 402.07,331.52 Q401.24,330.08 400.25,329.64 Q399.25,329.19 398.21,329.79 Z M396.88,327.51 Q399.47,326.01 401.73,326.57 Q403.99,327.12 405.41,329.59 Q406.84,332.06 406.19,334.30 Q405.54,336.53 402.96,338.02 Q400.36,339.52 398.10,338.97 Q395.83,338.42 394.40,335.95 Q392.98,333.48 393.64,331.24 Q394.29,329.00 396.88,327.51 Z M413.86,321.66 Q413.32,321.71 412.85,321.86 Q412.38,322.00 411.96,322.25 Q410.73,322.96 410.52,324.14 Q410.31,325.31 411.16,326.78 L413.82,331.40 L410.62,333.25 L404.84,323.23 L408.04,321.38 L408.99,323.03 Q409.04,321.69 409.58,320.78 Q410.12,319.86 411.24,319.22 Q411.40,319.13 411.59,319.03 Q411.79,318.93 412.17,318.77 L413.86,321.66 Z M424.11,314.32 Q424.19,313.04 424.74,312.07 Q425.30,311.10 426.30,310.52 Q428.02,309.53 429.54,310.07 Q431.06,310.61 432.23,312.64 L435.75,318.74 L432.53,320.60 L429.52,315.38 Q429.46,315.25 429.39,315.13 Q429.32,315.00 429.19,314.77 Q428.58,313.70 427.99,313.41 Q427.40,313.11 426.70,313.51 Q425.79,314.03 425.72,315.07 Q425.66,316.11 426.46,317.54 L429.30,322.46 L426.08,324.32 L423.07,319.10 Q422.11,317.44 421.55,317.12 Q420.98,316.81 420.25,317.23 Q419.33,317.76 419.26,318.81 Q419.20,319.85 420.01,321.26 L422.86,326.19 L419.64,328.04 L413.85,318.03 L417.07,316.17 L417.92,317.64 Q418.02,316.45 418.54,315.58 Q419.05,314.71 419.98,314.17 Q421.01,313.58 422.10,313.62 Q423.18,313.66 424.11,314.32 Z" fill="#FFFFFF"/>
</svg>
